<?xml version="1.0" standalone="no"?>
<!DOCTYPE svg PUBLIC "-//W3C//DTD SVG 20010904//EN"
 "http://www.w3.org/TR/2001/REC-SVG-20010904/DTD/svg10.dtd">
<svg version="1.0" xmlns="http://www.w3.org/2000/svg"
 width="260.000000pt" height="260.000000pt" viewBox="0 0 260.000000 260.000000"
 preserveAspectRatio="xMidYMid meet">
<metadata>
Created by potrace 1.11, written by Peter Selinger 2001-2013
</metadata>
<g transform="translate(0.000000,260.000000) scale(0.100000,-0.100000)"
fill="#000000" stroke="none">
<path d="M1280 2384 c-14 -3 -57 -38 -97 -80 -83 -85 -136 -124 -169 -124 -12
0 -25 -4 -28 -9 -3 -4 -30 -11 -61 -15 -30 -3 -72 -12 -93 -20 -20 -8 -58 -20
-84 -27 -26 -7 -44 -17 -42 -21 3 -4 61 -8 130 -8 110 0 124 -2 124 -17 0 -16
1 -16 13 0 11 15 53 17 461 17 l448 1 26 -23 c13 -13 23 -18 21 -13 -5 15 -81
81 -155 138 -33 25 -126 80 -205 123 -128 69 -151 77 -204 80 -33 1 -71 0 -85
-2z"/>
<path d="M638 2083 c7 -3 16 -2 19 1 4 3 -2 6 -13 5 -11 0 -14 -3 -6 -6z"/>
<path d="M2000 1954 c0 -6 7 -19 15 -30 8 -10 14 -14 14 -9 0 6 -6 19 -14 29
-8 11 -15 15 -15 10z"/>
<path d="M827 1913 c-4 -3 -7 -11 -7 -17 0 -6 5 -5 12 2 6 6 9 14 7 17 -3 3
-9 2 -12 -2z"/>
<path d="M1444 1794 c-27 -40 -30 -124 -7 -153 16 -20 23 -22 41 -12 25 13 43
71 36 119 -5 40 -9 49 -34 62 -16 8 -22 6 -36 -16z"/>
<path d="M2110 1782 c6 -13 14 -21 18 -18 3 4 -2 14 -12 24 -18 16 -18 16 -6
-6z"/>
<path d="M617 1653 c-4 -3 -7 -11 -7 -17 0 -6 5 -5 12 2 6 6 9 14 7 17 -3 3
-9 2 -12 -2z"/>
<path d="M2210 1571 c0 -5 5 -13 10 -16 6 -3 10 -2 10 4 0 5 -4 13 -10 16 -5
3 -10 2 -10 -4z"/>
<path d="M515 1499 c-4 -6 -5 -12 -2 -15 2 -3 7 2 10 11 7 17 1 20 -8 4z"/>
<path d="M1185 1379 c-4 -6 -4 -13 -1 -16 8 -8 36 5 36 17 0 13 -27 13 -35 -1z"/>
<path d="M1090 1360 l-45 -7 53 -1 c29 -1 52 2 52 8 0 6 -3 9 -7 8 -5 0 -28
-4 -53 -8z"/>
<path d="M885 1330 c-7 -11 9 -11 45 0 24 8 24 8 -7 9 -17 1 -35 -3 -38 -9z"/>
<path d="M690 1320 c-12 -8 -10 -10 10 -10 14 0 32 5 40 10 12 8 10 10 -10 10
-14 0 -32 -5 -40 -10z"/>
<path d="M568 1303 c12 -2 30 -2 40 0 9 3 -1 5 -23 4 -22 0 -30 -2 -17 -4z"/>
<path d="M393 1273 c9 -2 23 -2 30 0 6 3 -1 5 -18 5 -16 0 -22 -2 -12 -5z"/>
<path d="M315 1260 c-3 -5 -2 -10 4 -10 5 0 13 5 16 10 3 6 2 10 -4 10 -5 0
-13 -4 -16 -10z"/>
<path d="M268 1243 c7 -3 16 -2 19 1 4 3 -2 6 -13 5 -11 0 -14 -3 -6 -6z"/>
<path d="M190 1181 c0 -5 11 -16 25 -25 29 -19 34 -7 7 17 -21 19 -32 22 -32
8z"/>
<path d="M2336 1130 c7 -60 13 -80 25 -80 6 0 7 5 3 11 -4 6 -13 35 -20 63
l-13 51 5 -45z"/>
<path d="M2401 833 c-1 -12 4 -25 9 -28 12 -7 12 2 0 30 -8 19 -9 19 -9 -2z"/>
<path d="M2401 657 c-5 -13 -21 -38 -36 -55 -15 -18 -25 -35 -22 -38 7 -7 63
66 71 94 10 29 -2 29 -13 -1z"/>
<path d="M2225 514 l-30 -14 30 6 c31 6 41 11 34 18 -2 2 -17 -2 -34 -10z"/>
<path d="M2085 483 c-44 -7 -111 -18 -150 -24 -38 -5 -74 -14 -79 -19 -13 -13
67 -13 108 -1 17 6 69 18 116 27 47 9 89 21 95 26 10 9 16 10 -90 -9z"/>
<path d="M656 457 c3 -10 9 -15 12 -12 3 3 0 11 -7 18 -10 9 -11 8 -5 -6z"/>
<path d="M1788 445 c-6 -6 -92 -14 -167 -14 -41 -1 -71 -4 -68 -7 9 -9 222 -5
248 4 18 7 19 10 7 15 -9 3 -18 4 -20 2z"/>
<path d="M1365 400 c-27 -12 45 -12 100 -1 38 8 38 9 -20 9 -33 0 -69 -3 -80
-8z"/>
<path d="M1215 390 c-97 -19 -385 -28 -465 -14 -33 5 -34 4 -18 -12 21 -21 84
-26 173 -14 39 6 144 14 234 20 90 5 169 14 174 19 13 13 -36 13 -98 1z"/>
</g>
</svg>
